<svg xmlns="http://www.w3.org/2000/svg" viewBox="0 0 512 512">
  <defs>
    <!-- Gradient definitions for the modern Aetherra logo -->
    <radialGradient id="flameGradient" cx="50%" cy="50%" r="50%">
      <stop offset="0%" style="stop-color:#2ecc71;stop-opacity:1" />
      <stop offset="50%" style="stop-color:#1abc9c;stop-opacity:0.9" />
      <stop offset="100%" style="stop-color:#3498db;stop-opacity:0.7" />
    </radialGradient>
    
    <radialGradient id="centerGlow" cx="50%" cy="50%" r="30%">
      <stop offset="0%" style="stop-color:#1abc9c;stop-opacity:0.8" />
      <stop offset="100%" style="stop-color:#1abc9c;stop-opacity:0" />
    </radialGradient>
    
    <linearGradient id="ringGradient" x1="0%" y1="0%" x2="100%" y2="100%">
      <stop offset="0%" style="stop-color:#1abc9c;stop-opacity:1" />
      <stop offset="50%" style="stop-color:#2ecc71;stop-opacity:0.9" />
      <stop offset="100%" style="stop-color:#3498db;stop-opacity:0.8" />
    </linearGradient>
  </defs>
  
  <!-- Outer ring with gradient -->
  <circle cx="256" cy="256" r="200" fill="none" stroke="url(#ringGradient)" stroke-width="40" opacity="0.9"/>
  
  <!-- Inner flame/leaf shape -->
  <path d="M 256,100 
           C 320,120 380,180 360,256
           C 340,320 280,380 256,360
           C 240,340 220,320 210,280
           C 200,240 220,200 240,180
           C 250,160 250,140 256,100 Z" 
        fill="url(#flameGradient)" opacity="0.9"/>
  
  <!-- Additional flame details -->
  <path d="M 256,120
           C 290,140 320,180 310,230
           C 300,270 270,300 256,290
           C 250,280 240,260 235,240
           C 230,220 240,200 250,180
           C 252,150 254,135 256,120 Z"
        fill="#2ecc71" opacity="0.7"/>
  
  <!-- Center glow -->
  <circle cx="256" cy="256" r="80" fill="url(#centerGlow)"/>
  
  <!-- Inner highlight -->
  <ellipse cx="256" cy="200" rx="30" ry="50" fill="#52cc8a" opacity="0.6"/>
  
  <!-- Accent lines for modern look -->
  <path d="M 180,180 Q 256,150 332,180" stroke="#1abc9c" stroke-width="3" fill="none" opacity="0.8"/>
  <path d="M 180,332 Q 256,362 332,332" stroke="#1abc9c" stroke-width="3" fill="none" opacity="0.8"/>
</svg>