<?xml version="1.0" encoding="utf-8"?>
<?xml version="1.0" encoding="utf-8"?>
<svg xmlns="http://www.w3.org/2000/svg" width="1024" height="1024" viewBox="0 0 1024 1024" version="1.1">
  <path d="M 504.091 257.250 C 505.444 264.248, 505.105 284.224, 503.488 292.750 C 499.654 312.959, 489.998 332.304, 474.412 351 C 464.206 363.243, 451.834 374.589, 428.971 392.677 C 413.939 404.569, 394.003 425.197, 386.052 437.084 C 373.234 456.246, 364.748 477.502, 360.894 500.097 C 359.052 510.899, 358.845 515.146, 359.293 533 C 359.725 550.201, 360.212 555.208, 362.320 564.111 C 368.812 591.528, 382.377 615.977, 400.308 632.579 C 418.583 649.499, 442.187 661.135, 467.143 665.527 C 476.050 667.094, 498.440 667.396, 506 666.051 C 510.109 665.320, 509.805 665.238, 502.500 665.107 C 493.205 664.940, 477.074 662.753, 468.602 660.510 C 436.480 652.006, 410.632 630.248, 397.970 601.053 C 380.350 560.429, 386.944 513.536, 415.218 478.390 C 422.939 468.792, 432.293 460.790, 450.331 448.353 C 487.213 422.922, 501.183 411.956, 513.599 398.685 C 527.465 383.865, 538.546 366.668, 543.570 352.172 C 546.406 343.989, 546.657 346.712, 544.061 357.500 C 539.966 374.513, 532.209 392.813, 523.712 405.500 C 512.687 421.964, 502.050 431.954, 477 449.369 C 445.513 471.259, 438.803 477.094, 426.877 492.956 C 395.829 534.253, 393.832 583.629, 421.903 616 L 424.938 619.500 421.429 611.317 C 416.274 599.294, 414.732 590.702, 415.273 577 C 415.834 562.768, 418.693 553.236, 426.152 540.723 C 437.348 521.941, 455.593 506.317, 489.500 486.474 C 515.934 471.005, 542.920 452.353, 555.225 441.048 C 574.250 423.568, 586.818 398.069, 588.878 372.770 C 592.779 324.878, 565.343 282.285, 515 258.078 C 509.225 255.301, 504.223 253.022, 503.884 253.014 C 503.546 253.006, 503.639 254.912, 504.091 257.250 M 626.842 359.750 C 628.949 363.949, 633.492 377.640, 634.555 383 C 635.077 385.628, 637.898 389.241, 645.877 397.500 C 651.721 403.550, 659.821 412.919, 663.875 418.320 C 702.163 469.329, 713.017 535.948, 692.904 596.500 C 676.691 645.312, 642.508 684.355, 596.606 706.487 C 544.388 731.666, 482.697 732.014, 431.125 707.422 C 409.525 697.122, 394.538 686.685, 378.930 671.073 C 362.221 654.359, 350.934 638.479, 341.057 617.787 C 332.100 599.021, 327.344 583.143, 324.438 562.301 C 321.934 544.348, 322.887 512.858, 326.444 496 C 331.316 472.913, 341.028 448.689, 352.604 430.750 C 355 427.038, 356.735 424, 356.460 424 C 355.609 424, 346.740 438.082, 342.288 446.500 C 339.962 450.900, 338.045 454.137, 338.029 453.693 C 338.013 453.250, 337 453.587, 335.777 454.443 C 334.555 455.299, 332.868 455.993, 332.027 455.985 C 330.945 455.974, 330.849 455.748, 331.697 455.208 C 332.487 454.706, 332.577 453.945, 331.963 452.974 C 331.333 451.977, 331.026 451.905, 331.015 452.750 C 330.991 454.705, 329.002 454.215, 328.985 452.250 C 328.972 450.758, 328.829 450.721, 328.021 452 C 327.500 452.825, 325.894 453.521, 324.453 453.548 C 321.997 453.592, 321.948 453.506, 323.667 452.173 C 325.393 450.833, 325.369 450.781, 323.250 451.281 C 320.803 451.859, 320.504 451.315, 322 449 C 322.646 448, 322.974 447.917, 322.985 448.750 C 322.993 449.438, 323.505 450, 324.122 450 C 324.909 450, 324.881 449.561, 324.028 448.533 C 323.035 447.338, 324.109 444.567, 329.838 433.533 C 333.703 426.090, 336.696 420, 336.489 420 C 336.282 420, 333.521 424.613, 330.354 430.250 C 313.265 460.667, 304.368 492.321, 303.279 526.578 C 301.835 572.031, 313.249 613.993, 336.724 649.520 C 370.752 701.022, 422.305 733.986, 482.117 742.488 C 496.018 744.463, 527.124 744.447, 542.542 742.455 C 588.502 736.519, 631.861 714.121, 665.179 679.105 C 692.339 650.559, 710.454 615.172, 718.597 574.752 C 722.168 557.024, 723.090 524.929, 720.558 506.500 C 713.549 455.504, 690.063 411.310, 651 375.613 C 644.675 369.833, 626.722 356, 625.546 356 C 625.223 356, 625.806 357.688, 626.842 359.750 M 342.217 411.250 C 338.035 416.957, 336.043 420.162, 337.710 418.500 C 339.476 416.739, 347.082 406, 346.563 406 C 346.288 406, 344.332 408.363, 342.217 411.250 M 592.094 424.566 C 590.192 427.789, 582.241 438.411, 575.532 446.691 L 572.947 449.883 577.635 451.957 C 595.642 459.922, 616.019 480.271, 626.246 500.500 C 640.376 528.450, 642.283 564.552, 631.343 597 C 619.396 632.435, 592.005 663.479, 558.482 679.577 C 538.718 689.068, 521.116 693, 498.396 693 C 482.198 693, 472.594 691.879, 459.569 688.468 C 445.305 684.733, 445.167 684.726, 451.475 688.081 C 459.561 692.383, 481.614 699.530, 492.564 701.399 C 520.895 706.233, 549.692 703.017, 574.733 692.221 C 599.183 681.680, 624.285 660.148, 640.275 636 C 652.362 617.746, 661.486 594.649, 664.422 574.872 C 666.519 560.747, 666.508 534.349, 664.401 521.926 C 659.521 493.166, 645.480 465.854, 624.306 443.938 C 614.702 433.997, 598.363 421, 595.471 421 C 594.771 421, 593.251 422.604, 592.094 424.566" stroke="none" fill="#0cbea9" fill-rule="evenodd"/>
</svg>
