<svg xmlns="http://www.w3.org/2000/svg" viewBox="0 0 100 100" width="100" height="100">
  <defs>
    <linearGradient id="gradient" x1="0%" y1="0%" x2="100%" y2="100%">
      <stop offset="0%" style="stop-color:#6366f1;stop-opacity:1" />
      <stop offset="100%" style="stop-color:#8b5cf6;stop-opacity:1" />
    </linearGradient>
  </defs>
  
  <!-- Neural network nodes -->
  <circle cx="20" cy="30" r="6" fill="url(#gradient)" opacity="0.8"/>
  <circle cx="50" cy="20" r="6" fill="url(#gradient)" opacity="0.9"/>
  <circle cx="80" cy="30" r="6" fill="url(#gradient)" opacity="0.8"/>
  <circle cx="20" cy="70" r="6" fill="url(#gradient)" opacity="0.8"/>
  <circle cx="50" cy="80" r="6" fill="url(#gradient)" opacity="0.9"/>
  <circle cx="80" cy="70" r="6" fill="url(#gradient)" opacity="0.8"/>
  <circle cx="50" cy="50" r="8" fill="url(#gradient)"/>
  
  <!-- Neural connections -->
  <line x1="20" y1="30" x2="50" y2="20" stroke="url(#gradient)" stroke-width="2" opacity="0.6"/>
  <line x1="50" y1="20" x2="80" y2="30" stroke="url(#gradient)" stroke-width="2" opacity="0.6"/>
  <line x1="20" y1="70" x2="50" y2="80" stroke="url(#gradient)" stroke-width="2" opacity="0.6"/>
  <line x1="50" y1="80" x2="80" y2="70" stroke="url(#gradient)" stroke-width="2" opacity="0.6"/>
  <line x1="20" y1="30" x2="50" y2="50" stroke="url(#gradient)" stroke-width="2" opacity="0.7"/>
  <line x1="80" y1="30" x2="50" y2="50" stroke="url(#gradient)" stroke-width="2" opacity="0.7"/>
  <line x1="20" y1="70" x2="50" y2="50" stroke="url(#gradient)" stroke-width="2" opacity="0.7"/>
  <line x1="80" y1="70" x2="50" y2="50" stroke="url(#gradient)" stroke-width="2" opacity="0.7"/>
  <line x1="50" y1="20" x2="50" y2="50" stroke="url(#gradient)" stroke-width="3" opacity="0.8"/>
  <line x1="50" y1="50" x2="50" y2="80" stroke="url(#gradient)" stroke-width="3" opacity="0.8"/>
  
  <!-- Central consciousness symbol -->
  <circle cx="50" cy="50" r="12" fill="none" stroke="url(#gradient)" stroke-width="3" opacity="0.4"/>
  <circle cx="50" cy="50" r="18" fill="none" stroke="url(#gradient)" stroke-width="2" opacity="0.3"/>
</svg>
